<?xml version="1.0" encoding="UTF-8"?>
<!DOCTYPE svg PUBLIC "-//W3C//DTD SVG 1.1//EN" "http://www.w3.org/Graphics/SVG/1.1/DTD/svg11.dtd">
<!-- Creator: CorelDRAW 2019 (64-Bit) -->
<svg xmlns="http://www.w3.org/2000/svg" xml:space="preserve" width="1.41042in" height="1.35806in" version="1.1" style="shape-rendering:geometricPrecision; text-rendering:geometricPrecision; image-rendering:optimizeQuality; fill-rule:evenodd; clip-rule:evenodd"
viewBox="0 0 297.09 286.06"
 xmlns:xlink="http://www.w3.org/1999/xlink"
 xmlns:xodm="http://www.corel.com/coreldraw/odm/2003">
 <defs>
   <clipPath id="id0">
    <path d="M297.09 0l0 286.06 -297.09 0 0 -286.06 119.66 0c3.31,6.59 10.04,11.49 18.8,11.6 5.74,0.07 20.65,0.74 26.17,-1.28l1.48 -0.61c10.97,0 7.83,-1.89 13.98,-1.89l10.32 0c4.47,5.16 9.96,7.57 16.77,7.57 1.69,5.96 7,11.05 11.73,15.34 5.84,5.31 10.51,4.09 15.63,7.55 6.99,4.72 15.76,3.71 25.02,3.6 21.06,-0.27 27.63,-26.31 14.16,-38.55 -1.89,-1.72 -2.87,-2.66 -3.69,-3.33l27.04 0z"/>
   </clipPath>
 </defs>
 <g id="Layer_x0020_1">
  <metadata id="CorelCorpID_0Corel-Layer"/>
  <g style="clip-path:url(#id0)">
   <image x="-0" y="0" width="297.09" height="286.06" xlink:href="Untitled-1_Images\Untitled-1_ImgID1.png"/>
  </g>
 </g>
</svg>
